<?xml version="1.0" standalone="no"?>
<!DOCTYPE svg PUBLIC "-//W3C//DTD SVG 20010904//EN"
 "http://www.w3.org/TR/2001/REC-SVG-20010904/DTD/svg10.dtd">
<svg version="1.0" xmlns="http://www.w3.org/2000/svg"
 width="512.000000pt" height="512.000000pt" viewBox="0 0 512.000000 512.000000"
 preserveAspectRatio="xMidYMid meet">

<g transform="translate(0.000000,512.000000) scale(0.100000,-0.100000)"
fill="#000000" stroke="none">
<path d="M0 2560 l0 -2560 2560 0 2560 0 0 2560 0 2560 -2560 0 -2560 0 0
-2560z m1708 1033 c14 -11 34 -36 45 -56 27 -52 24 -136 -17 -592 -55 -594
-66 -749 -65 -905 0 -194 21 -250 82 -223 88 40 259 526 492 1398 37 137 68
252 70 255 6 9 175 -12 175 -22 0 -35 -141 -545 -213 -773 -166 -519 -372
-940 -516 -1055 -110 -86 -235 -78 -290 21 -56 99 -52 261 24 1127 46 531 47
564 7 543 -9 -5 -25 -17 -34 -28 -23 -26 -114 -212 -163 -333 -134 -331 -346
-753 -477 -948 -147 -220 -220 -300 -355 -391 -73 -48 -195 -112 -202 -105 -3
2 -19 41 -37 87 -37 94 -43 81 73 145 43 23 115 74 160 112 217 184 387 450
660 1028 187 398 275 566 329 635 78 98 183 131 252 80z m1327 -90 c12 -126
-1 -503 -24 -683 -27 -205 -84 -549 -115 -695 -14 -60 -23 -111 -22 -112 5 -5
345 457 935 1271 96 132 165 200 212 210 86 17 129 -3 129 -60 0 -18 -25 -113
-55 -211 -142 -453 -243 -975 -233 -1198 4 -100 19 -137 63 -157 100 -45 360
240 523 573 149 305 216 572 229 905 l6 162 109 12 c60 7 112 10 115 6 13 -13
15 -243 4 -332 -44 -336 -252 -810 -506 -1149 -144 -192 -300 -341 -425 -406
-89 -46 -224 -26 -286 43 -57 62 -94 195 -94 339 0 129 42 396 111 706 16 73
29 135 29 139 0 3 -92 -122 -206 -277 -422 -580 -718 -938 -799 -969 -45 -17
-120 19 -155 75 -32 51 -25 111 30 295 128 423 180 819 180 1367 l0 223 119 0
119 0 7 -77z"/>
</g>
</svg>
